<?xml version="1.0" standalone="no"?>
<!DOCTYPE svg PUBLIC "-//W3C//DTD SVG 20010904//EN"
 "http://www.w3.org/TR/2001/REC-SVG-20010904/DTD/svg10.dtd">
<svg version="1.0" xmlns="http://www.w3.org/2000/svg"
 width="154.000000pt" height="72.000000pt" viewBox="0 0 154.000000 72.000000"
 preserveAspectRatio="xMidYMid meet">

<g transform="translate(0.000000,72.000000) scale(0.100000,-0.100000)"
fill="#000000" stroke="none">
<path d="M903 709 c-417 -31 -826 -226 -885 -420 -18 -61 -3 -108 52 -160 54
-53 123 -83 245 -106 120 -23 403 -13 550 20 391 87 665 267 665 436 0 162
-261 258 -627 230z m384 -119 c60 -27 85 -71 80 -138 -3 -41 -10 -59 -32 -82
-37 -38 -79 -50 -182 -50 l-83 0 0 -47 c0 -60 -20 -83 -73 -83 l-40 0 6 48 6
47 -16 -35 c-36 -85 -82 -110 -203 -110 l-91 0 3 47 3 48 75 5 c74 5 75 6 92
40 27 53 24 125 -7 155 -21 22 -33 25 -90 25 l-65 0 0 31 c0 22 -5 32 -20 36
-11 3 -20 12 -20 19 0 18 170 20 221 3 44 -15 86 -55 101 -96 l12 -33 114 0
c124 0 152 8 152 45 0 37 -28 45 -149 45 l-111 0 0 50 0 50 138 0 c113 0 144
-4 179 -20z m-924 -80 l27 0 0 -85 0 -85 65 0 65 0 0 67 c0 81 15 103 72 103
l39 0 -2 -137 c0 -76 -3 -171 -6 -210 l-6 -73 -48 0 -49 0 0 80 0 80 -64 0
-64 0 -7 -67 c-4 -38 -12 -74 -17 -80 -6 -7 -28 -13 -49 -13 l-39 0 0 73 c0
39 3 136 7 215 6 139 7 143 27 138 12 -3 33 -6 49 -6z"/>
</g>
</svg>
